<mxfile host="Electron" modified="2023-12-01T18:51:30.609Z" agent="Mozilla/5.0 (X11; Linux x86_64) AppleWebKit/537.36 (KHTML, like Gecko) draw.io/21.2.8 Chrome/112.0.5615.165 Electron/24.2.0 Safari/537.36" etag="Cw4pp1TWGR5-oGsTU0H6" version="21.2.8" type="device">
  <diagram name="Seite-1" id="I9_DKmg3dj94EEphmdeL">
    <mxGraphModel dx="1031" dy="640" grid="1" gridSize="10" guides="1" tooltips="1" connect="1" arrows="1" fold="1" page="1" pageScale="1" pageWidth="827" pageHeight="1169" math="0" shadow="0">
      <root>
        <mxCell id="0" />
        <mxCell id="1" parent="0" />
        <mxCell id="v8Eb_Ge8aaL3YhYPjWy0-1" value="" style="rounded=0;whiteSpace=wrap;html=1;" parent="1" vertex="1">
          <mxGeometry x="200" y="240" width="240" height="90" as="geometry" />
        </mxCell>
        <mxCell id="v8Eb_Ge8aaL3YhYPjWy0-6" value="i_Clk" style="text;html=1;align=left;verticalAlign=middle;resizable=0;points=[];autosize=1;strokeColor=none;fillColor=none;" parent="1" vertex="1">
          <mxGeometry x="200" y="240" width="50" height="30" as="geometry" />
        </mxCell>
        <mxCell id="v8Eb_Ge8aaL3YhYPjWy0-8" value="i_TX_DV" style="text;html=1;align=left;verticalAlign=middle;resizable=0;points=[];autosize=1;strokeColor=none;fillColor=none;" parent="1" vertex="1">
          <mxGeometry x="200" y="270" width="70" height="30" as="geometry" />
        </mxCell>
        <mxCell id="v8Eb_Ge8aaL3YhYPjWy0-9" value="i_TX_Byte" style="text;html=1;align=left;verticalAlign=middle;resizable=0;points=[];autosize=1;strokeColor=none;fillColor=none;" parent="1" vertex="1">
          <mxGeometry x="200" y="300" width="80" height="30" as="geometry" />
        </mxCell>
        <mxCell id="v8Eb_Ge8aaL3YhYPjWy0-10" value="o_TX_Active" style="text;html=1;align=right;verticalAlign=middle;resizable=0;points=[];autosize=1;strokeColor=none;fillColor=none;" parent="1" vertex="1">
          <mxGeometry x="350" y="240" width="90" height="30" as="geometry" />
        </mxCell>
        <mxCell id="v8Eb_Ge8aaL3YhYPjWy0-11" value="o_TX_Serial" style="text;html=1;align=right;verticalAlign=middle;resizable=0;points=[];autosize=1;strokeColor=none;fillColor=none;" parent="1" vertex="1">
          <mxGeometry x="350" y="270" width="90" height="30" as="geometry" />
        </mxCell>
        <mxCell id="v8Eb_Ge8aaL3YhYPjWy0-12" value="&amp;nbsp; &amp;nbsp; o_TX_Done" style="text;html=1;align=right;verticalAlign=middle;resizable=0;points=[];autosize=1;strokeColor=none;fillColor=none;" parent="1" vertex="1">
          <mxGeometry x="340" y="300" width="100" height="30" as="geometry" />
        </mxCell>
        <mxCell id="v8Eb_Ge8aaL3YhYPjWy0-13" value="UART_TX" style="text;html=1;strokeColor=none;fillColor=none;align=center;verticalAlign=middle;whiteSpace=wrap;rounded=0;" parent="1" vertex="1">
          <mxGeometry x="290" y="270" width="60" height="30" as="geometry" />
        </mxCell>
        <mxCell id="v8Eb_Ge8aaL3YhYPjWy0-14" value="" style="rounded=0;whiteSpace=wrap;html=1;" parent="1" vertex="1">
          <mxGeometry x="200" y="40" width="240" height="90" as="geometry" />
        </mxCell>
        <mxCell id="v8Eb_Ge8aaL3YhYPjWy0-15" value="i_Clk" style="text;html=1;align=left;verticalAlign=middle;resizable=0;points=[];autosize=1;strokeColor=none;fillColor=none;" parent="1" vertex="1">
          <mxGeometry x="200" y="40" width="50" height="30" as="geometry" />
        </mxCell>
        <mxCell id="v8Eb_Ge8aaL3YhYPjWy0-16" value="i_RX_Serial" style="text;html=1;align=left;verticalAlign=middle;resizable=0;points=[];autosize=1;strokeColor=none;fillColor=none;" parent="1" vertex="1">
          <mxGeometry x="200" y="100" width="90" height="30" as="geometry" />
        </mxCell>
        <mxCell id="v8Eb_Ge8aaL3YhYPjWy0-18" value="o_RX_DV" style="text;html=1;align=right;verticalAlign=middle;resizable=0;points=[];autosize=1;strokeColor=none;fillColor=none;" parent="1" vertex="1">
          <mxGeometry x="360" y="40" width="80" height="30" as="geometry" />
        </mxCell>
        <mxCell id="v8Eb_Ge8aaL3YhYPjWy0-19" value="o_RX_Byte" style="text;html=1;align=right;verticalAlign=middle;resizable=0;points=[];autosize=1;strokeColor=none;fillColor=none;" parent="1" vertex="1">
          <mxGeometry x="360" y="100" width="80" height="30" as="geometry" />
        </mxCell>
        <mxCell id="v8Eb_Ge8aaL3YhYPjWy0-21" value="UART_RX" style="text;html=1;strokeColor=none;fillColor=none;align=center;verticalAlign=middle;whiteSpace=wrap;rounded=0;" parent="1" vertex="1">
          <mxGeometry x="290" y="70" width="60" height="30" as="geometry" />
        </mxCell>
        <mxCell id="v8Eb_Ge8aaL3YhYPjWy0-22" value="entity UART_RX is&#xa;  generic (&#xa;    g_CLKS_PER_BIT : integer := 434 -- 50000000 / 115200&#xa;    );&#xa;  port (&#xa;    i_Clk       : in  std_logic;&#xa;    i_RX_Serial : in  std_logic;&#xa;    o_RX_DV     : out std_logic; -- data valid pulse: indicates when RX_Byte has valid content&#xa;    o_RX_Byte   : out std_logic_vector(7 downto 0)&#xa;    );&#xa;end UART_RX;" style="text;whiteSpace=wrap;html=1;" parent="1" vertex="1">
          <mxGeometry x="20" y="405" width="500" height="180" as="geometry" />
        </mxCell>
        <mxCell id="v8Eb_Ge8aaL3YhYPjWy0-23" value="entity UART_TX is&#xa;  generic (&#xa;  -- 50000000 / 115200 = 434.028 Clocks Per Bit.&#xa;    g_CLKS_PER_BIT : integer := 434     -- Needs to be set correctly&#xa;    );&#xa;  port (&#xa;    i_Clk       : in  std_logic;&#xa;    i_TX_DV     : in  std_logic;&#xa;    i_TX_Byte   : in  std_logic_vector(7 downto 0);&#xa;    o_TX_Active : out std_logic;&#xa;    o_TX_Serial : out std_logic;&#xa;    o_TX_Done   : out std_logic&#xa;    );&#xa;end UART_TX;" style="text;whiteSpace=wrap;html=1;" parent="1" vertex="1">
          <mxGeometry x="20" y="600" width="390" height="220" as="geometry" />
        </mxCell>
        <mxCell id="IhEZ7xAKRjl5Q85qHW52-1" value="" style="endArrow=classic;html=1;rounded=0;entryX=0.011;entryY=0.667;entryDx=0;entryDy=0;entryPerimeter=0;" parent="1" target="v8Eb_Ge8aaL3YhYPjWy0-16" edge="1">
          <mxGeometry width="50" height="50" relative="1" as="geometry">
            <mxPoint x="40" y="120" as="sourcePoint" />
            <mxPoint x="440" y="140" as="targetPoint" />
          </mxGeometry>
        </mxCell>
        <mxCell id="IhEZ7xAKRjl5Q85qHW52-2" value="" style="endArrow=classic;html=1;rounded=0;entryX=-0.04;entryY=0.633;entryDx=0;entryDy=0;entryPerimeter=0;" parent="1" target="v8Eb_Ge8aaL3YhYPjWy0-15" edge="1">
          <mxGeometry width="50" height="50" relative="1" as="geometry">
            <mxPoint x="40" y="60" as="sourcePoint" />
            <mxPoint x="440" y="140" as="targetPoint" />
          </mxGeometry>
        </mxCell>
        <mxCell id="IhEZ7xAKRjl5Q85qHW52-5" value="" style="endArrow=classic;html=1;rounded=0;" parent="1" edge="1">
          <mxGeometry width="50" height="50" relative="1" as="geometry">
            <mxPoint x="50" y="260" as="sourcePoint" />
            <mxPoint x="200" y="260" as="targetPoint" />
          </mxGeometry>
        </mxCell>
        <mxCell id="IhEZ7xAKRjl5Q85qHW52-7" value="" style="endArrow=classic;html=1;rounded=0;exitX=1.033;exitY=0.433;exitDx=0;exitDy=0;exitPerimeter=0;" parent="1" source="v8Eb_Ge8aaL3YhYPjWy0-11" edge="1">
          <mxGeometry width="50" height="50" relative="1" as="geometry">
            <mxPoint x="390" y="310" as="sourcePoint" />
            <mxPoint x="800" y="280" as="targetPoint" />
          </mxGeometry>
        </mxCell>
        <mxCell id="IhEZ7xAKRjl5Q85qHW52-8" value="" style="endArrow=classic;html=1;rounded=0;entryX=0.014;entryY=0.667;entryDx=0;entryDy=0;entryPerimeter=0;" parent="1" target="v8Eb_Ge8aaL3YhYPjWy0-8" edge="1">
          <mxGeometry width="50" height="50" relative="1" as="geometry">
            <mxPoint x="370" y="210" as="sourcePoint" />
            <mxPoint x="440" y="260" as="targetPoint" />
            <Array as="points">
              <mxPoint x="170" y="210" />
              <mxPoint x="170" y="290" />
            </Array>
          </mxGeometry>
        </mxCell>
        <mxCell id="IhEZ7xAKRjl5Q85qHW52-10" value="" style="endArrow=classic;html=1;rounded=0;entryX=-0.05;entryY=0.7;entryDx=0;entryDy=0;entryPerimeter=0;" parent="1" target="v8Eb_Ge8aaL3YhYPjWy0-9" edge="1">
          <mxGeometry width="50" height="50" relative="1" as="geometry">
            <mxPoint x="410" y="170" as="sourcePoint" />
            <mxPoint x="680" y="135" as="targetPoint" />
          </mxGeometry>
        </mxCell>
        <mxCell id="IhEZ7xAKRjl5Q85qHW52-11" value="" style="endArrow=classic;html=1;rounded=0;exitX=1;exitY=0.367;exitDx=0;exitDy=0;exitPerimeter=0;entryX=-0.008;entryY=0.6;entryDx=0;entryDy=0;entryPerimeter=0;" parent="1" source="v8Eb_Ge8aaL3YhYPjWy0-10" edge="1">
          <mxGeometry width="50" height="50" relative="1" as="geometry">
            <mxPoint x="390" y="180" as="sourcePoint" />
            <mxPoint x="639.04" y="114" as="targetPoint" />
            <Array as="points">
              <mxPoint x="480" y="251" />
              <mxPoint x="480" y="114" />
            </Array>
          </mxGeometry>
        </mxCell>
        <mxCell id="IhEZ7xAKRjl5Q85qHW52-12" value="" style="endArrow=classic;html=1;rounded=0;exitX=1.01;exitY=0.6;exitDx=0;exitDy=0;exitPerimeter=0;entryX=-0.017;entryY=0.85;entryDx=0;entryDy=0;entryPerimeter=0;" parent="1" source="v8Eb_Ge8aaL3YhYPjWy0-12" edge="1">
          <mxGeometry width="50" height="50" relative="1" as="geometry">
            <mxPoint x="390" y="180" as="sourcePoint" />
            <mxPoint x="637.96" y="149" as="targetPoint" />
            <Array as="points">
              <mxPoint x="500" y="318" />
              <mxPoint x="500" y="150" />
            </Array>
          </mxGeometry>
        </mxCell>
        <mxCell id="IhEZ7xAKRjl5Q85qHW52-13" value="" style="endArrow=classic;html=1;rounded=0;entryX=0;entryY=0.421;entryDx=0;entryDy=0;entryPerimeter=0;exitX=1;exitY=0.467;exitDx=0;exitDy=0;exitPerimeter=0;" parent="1" source="v8Eb_Ge8aaL3YhYPjWy0-19" edge="1">
          <mxGeometry width="50" height="50" relative="1" as="geometry">
            <mxPoint x="390" y="180" as="sourcePoint" />
            <mxPoint x="640" y="88.94000000000005" as="targetPoint" />
            <Array as="points">
              <mxPoint x="460" y="114" />
              <mxPoint x="460" y="89" />
            </Array>
          </mxGeometry>
        </mxCell>
        <mxCell id="IhEZ7xAKRjl5Q85qHW52-14" value="" style="endArrow=classic;html=1;rounded=0;entryX=-0.017;entryY=0.179;entryDx=0;entryDy=0;entryPerimeter=0;exitX=0.988;exitY=0.433;exitDx=0;exitDy=0;exitPerimeter=0;" parent="1" source="v8Eb_Ge8aaL3YhYPjWy0-18" edge="1">
          <mxGeometry width="50" height="50" relative="1" as="geometry">
            <mxPoint x="390" y="180" as="sourcePoint" />
            <mxPoint x="637.96" y="55.06000000000006" as="targetPoint" />
          </mxGeometry>
        </mxCell>
      </root>
    </mxGraphModel>
  </diagram>
</mxfile>
